<svg width="239" height="27" fill="none" xmlns="http://www.w3.org/2000/svg"><path d="M68.3 11.6c-.3-2.4-2.2-3.9-5.5-3.9-3.4 0-5.6 1.6-5.6 4.1 0 2 1.2 3.2 3.8 3.8l2.3.4c1.1.2 1.6.7 1.6 1.3 0 .8-.8 1.3-2 1.3-1.4 0-2.2-.5-2.5-1.6l-3.5.2c.3 2.5 2.4 4 6 4 3.3 0 5.7-1.7 5.7-4.3 0-1.8-1.2-3-3.7-3.5l-2.4-.5c-1.2-.2-1.7-.7-1.7-1.3 0-.8.9-1.3 2-1.3 1.3 0 2 .7 2.2 1.5l3.3-.2ZM71 26h3.6v-7.1c.6 1 1.7 2.3 3.8 2.3 3 0 5.3-2.3 5.3-6.7 0-4.5-2.4-6.8-5.3-6.8a3.9 3.9 0 0 0-3.7 2.4h-.2V8H71v18Zm3.5-11.5c0-2.4 1-3.9 2.7-3.9 1.8 0 2.8 1.6 2.8 3.9 0 2.2-1 3.8-2.8 3.8-1.7 0-2.7-1.5-2.7-3.8ZM89.8 21.2c2 0 3.2-.8 3.9-2V21h3.5v-8.8c0-3.1-2.6-4.5-5.5-4.5-3.2 0-5.2 1.5-5.7 4l3.3.2c.3-.9 1-1.5 2.3-1.5 1.3 0 2 .6 2 1.7 0 .9-1 1-3.2 1.2-2.6.3-4.9 1.1-4.9 4 0 2.6 1.8 4 4.3 4Zm1-2.5c-1 0-1.8-.5-1.8-1.5s.8-1.5 2-1.7c.9 0 2.2-.3 2.6-.6v1.4c0 1.4-1.1 2.4-2.7 2.4ZM106 21.3c3.4 0 5.6-2 5.8-5.1h-3.4c-.2 1.4-1.2 2.2-2.4 2.2-1.7 0-2.8-1.4-2.8-4 0-2.4 1.1-3.8 2.8-3.8 1.3 0 2.2.8 2.4 2.2h3.4c-.2-3-2.5-5-5.9-5-4 0-6.4 2.7-6.4 6.7s2.4 6.8 6.5 6.8ZM120 21.3c3.3 0 5.5-1.6 6-4l-3.3-.3c-.4 1-1.3 1.5-2.6 1.5-1.8 0-3-1.2-3-3.1h9v-1c0-4.5-2.7-6.7-6.2-6.7-3.8 0-6.3 2.8-6.3 6.8 0 4.2 2.5 6.8 6.5 6.8Zm-2.8-8.2c0-1.5 1.2-2.7 2.8-2.7 1.6 0 2.7 1.2 2.7 2.7h-5.5ZM135.4 8H133V4.7h-3.7v3.1h-1.8v2.7h1.8v6.9c0 2.5 1.8 3.8 4.4 3.7a7 7 0 0 0 2-.4l-.6-2.7-1 .2c-.6 0-1.1-.3-1.1-1.3v-6.4h2.4V8ZM137.8 21h3.6v-7.4c0-1.6 1.2-2.7 2.8-2.7.5 0 1.2 0 1.5.2V7.8h-1.1c-1.5 0-2.7.8-3.2 2.4V7.9h-3.6V21ZM151 21.2c2 0 3.2-.8 3.8-2h.1V21h3.4v-8.8c0-3.1-2.6-4.5-5.5-4.5-3.2 0-5.2 1.5-5.7 4l3.3.2c.3-.9 1-1.5 2.4-1.5 1.2 0 2 .6 2 1.7 0 .9-1 1-3.3 1.2-2.5.3-4.9 1.1-4.9 4 0 2.6 1.9 4 4.4 4Zm1-2.5c-1.1 0-2-.5-2-1.5s1-1.5 2.2-1.7c.8 0 2.1-.3 2.5-.6v1.4c0 1.4-1.1 2.4-2.7 2.4ZM172.9 8h-3.8l-2.8 9.3-2.8-9.4h-3.8l4.5 13.1h4.1L173 8ZM180.3 21.3c3.2 0 5.4-1.6 6-4l-3.5-.3c-.3 1-1.3 1.5-2.5 1.5-1.8 0-3-1.2-3-3.1h9v-1c0-4.5-2.7-6.7-6.2-6.7-3.8 0-6.3 2.8-6.3 6.8 0 4.2 2.4 6.8 6.5 6.8Zm-3-8.2c.1-1.5 1.3-2.7 2.9-2.7 1.6 0 2.7 1.2 2.7 2.7h-5.5ZM192.3 3.5h-3.6V21h3.6V3.5ZM195.2 21h3.6V8h-3.6v13ZM197 6.2c1.1 0 2-.8 2-1.8s-.9-1.9-2-1.9c-1 0-2 .9-2 1.9 0 1 1 1.8 2 1.8ZM205.4 13.4c0-1.7 1-2.6 2.4-2.6 1.5 0 2.4 1 2.4 2.5V21h3.6v-8.3c0-3-1.8-5-4.5-5-2 0-3.4 1-4 2.5h-.1V8h-3.5V21h3.7v-7.6ZM222.6 26.2c3.7 0 6.4-1.7 6.4-5V7.8h-3.6v2.2h-.2c-.5-1-1.5-2.4-3.7-2.4-2.9 0-5.3 2.3-5.3 6.7s2.3 6.4 5.3 6.4c2 0 3.2-1 3.7-2.1h.2V21c0 1.8-1.2 2.5-2.8 2.5-1.6 0-2.4-.7-2.7-1.5l-3.3.4c.4 2.1 2.4 3.7 6 3.7Zm0-8.1c-1.7 0-2.7-1.4-2.7-3.7 0-2.2 1-3.8 2.7-3.8 1.8 0 2.8 1.5 2.8 3.8s-1 3.7-2.8 3.7Z" fill="#F8F8F8"/><path d="M236.6 21.2c1 0 2-.9 2-2s-1-2-2-2a2 2 0 1 0 0 4ZM9.9.6 0 12l9.9 11.5 2.3-3.7L5.6 12l6.6-7.9L10 .6Zm4.3 22.7h4.3l7-22.5H21l-6.9 22.5ZM30.2.6l-2.4 3.6 6.6 7.9-6.6 7.8 2.3 3.7L40 12 30.1.6Z" fill="#FF57B2"/></svg>